<svg width="12" height="15" viewBox="0 0 12 15" fill="none" xmlns="http://www.w3.org/2000/svg">
<path fill-rule="evenodd" clip-rule="evenodd" d="M12 5.41422C12 5.0164 11.8419 4.63487 11.5606 4.35357L7.64642 0.439343C7.36512 0.158037 6.98359 0 6.58576 0L1 6.19888e-06C0.447715 6.19888e-06 0 0.447721 0 1.00001V14C0 14.5523 0.447715 15 1 15H11C11.5523 15 12 14.5523 12 14V6.00001L12 5.99076V5.41422ZM10.7928 5.00001H7.5C7.22386 5.00001 7 4.77615 7 4.50001V1.20713L10.7928 5.00001ZM8 11.1226L9.62975 9.49284L10.3369 10.2L7.50843 13.0284L4.68 10.2L5.38711 9.49284L7 11.1057V7H8V11.1226Z" fill="#E91E63"/>
</svg>
