<svg width="24" height="20" viewBox="0 0 24 20" fill="none" xmlns="http://www.w3.org/2000/svg">
<path fill-rule="evenodd" clip-rule="evenodd" d="M10.0968 2.22222H21.6C22.9236 2.22222 24 3.21889 24 4.44445V17.7778C24 19.0033 22.9236 20 21.6 20H2.39997C1.07637 20 -3.05176e-05 19.0033 -3.05176e-05 17.7778V2.22222C-3.05176e-05 0.996668 1.07637 5.85629e-07 2.39997 5.85629e-07H7.19997C7.35757 -0.000149457 7.51365 0.0285335 7.65925 0.0844025C7.80484 0.140272 7.93708 0.222226 8.04837 0.325557L10.0968 2.22222ZM3 5C2.44772 5 2 5.44772 2 6V17C2 17.5523 2.44772 18 3 18H21C21.5523 18 22 17.5523 22 17V6C22 5.44772 21.5523 5 21 5H3Z" fill="#6E78A0"/>
</svg>
