<svg width="28" height="28" viewBox="0 0 28 28" fill="none" xmlns="http://www.w3.org/2000/svg">
<path fill-rule="evenodd" clip-rule="evenodd" d="M16.8641 18.8435C15.0981 20.1927 12.8912 20.9942 10.4971 20.9942C4.69971 20.9942 0 16.2945 0 10.4971C0 4.69971 4.69971 0 10.4971 0C16.2945 0 20.9942 4.69971 20.9942 10.4971C20.9942 12.8912 20.1927 15.0981 18.8435 16.8641L28 26.0206L26.0206 28L16.8641 18.8435ZM18.195 10.4971C18.195 14.7485 14.7485 18.195 10.4971 18.195C6.24568 18.195 2.79922 14.7485 2.79922 10.4971C2.79922 6.24568 6.24568 2.79923 10.4971 2.79923C14.7485 2.79923 18.195 6.24568 18.195 10.4971Z" fill="white"/>
</svg>
